<mxfile host="app.diagrams.net" modified="2021-09-26T19:55:25.070Z" agent="5.0 (Windows NT 10.0; Win64; x64) AppleWebKit/537.36 (KHTML, like Gecko) Chrome/93.0.4577.82 Safari/537.36" etag="yi8yS3-eWj2PT_fNwWrx" version="15.3.4" type="github">
  <diagram id="KWbgu6_YYl0cxUG3aKty" name="Page-1">
    <mxGraphModel dx="1276" dy="571" grid="0" gridSize="10" guides="1" tooltips="1" connect="1" arrows="1" fold="1" page="1" pageScale="1" pageWidth="827" pageHeight="1169" math="0" shadow="0">
      <root>
        <mxCell id="0" />
        <mxCell id="1" parent="0" />
        <mxCell id="CYtTvgo_QjY-wMSUXiW4-1" value="" style="group" vertex="1" connectable="0" parent="1">
          <mxGeometry x="180" y="90" width="520" height="590" as="geometry" />
        </mxCell>
        <mxCell id="dCyG2mY-XgmFl275Lk3W-1" value="7.1" style="swimlane;childLayout=stackLayout;horizontal=1;startSize=30;horizontalStack=0;rounded=1;fontSize=14;fontStyle=1;strokeWidth=2;resizeParent=0;resizeLast=1;shadow=0;dashed=0;align=center;hachureGap=4;pointerEvents=0;fillColor=#dae8fc;strokeColor=#6c8ebf;" parent="CYtTvgo_QjY-wMSUXiW4-1" vertex="1">
          <mxGeometry x="169" width="130" height="120" as="geometry" />
        </mxCell>
        <mxCell id="dCyG2mY-XgmFl275Lk3W-2" value="Add Location" style="align=center;spacingLeft=4;fontSize=14;verticalAlign=top;resizable=0;rotatable=0;part=1;" parent="dCyG2mY-XgmFl275Lk3W-1" vertex="1">
          <mxGeometry y="30" width="130" height="90" as="geometry" />
        </mxCell>
        <mxCell id="dCyG2mY-XgmFl275Lk3W-3" value="" style="align=center;spacingLeft=4;fontSize=14;verticalAlign=top;resizable=0;rotatable=0;part=1;" parent="dCyG2mY-XgmFl275Lk3W-1" vertex="1">
          <mxGeometry y="120" width="130" as="geometry" />
        </mxCell>
        <mxCell id="dCyG2mY-XgmFl275Lk3W-4" value="" style="align=center;spacingLeft=4;fontSize=14;verticalAlign=top;resizable=0;rotatable=0;part=1;" parent="dCyG2mY-XgmFl275Lk3W-1" vertex="1">
          <mxGeometry y="120" width="130" as="geometry" />
        </mxCell>
        <mxCell id="dCyG2mY-XgmFl275Lk3W-6" value="7.2" style="swimlane;childLayout=stackLayout;horizontal=1;startSize=30;horizontalStack=0;rounded=1;fontSize=14;fontStyle=1;strokeWidth=2;resizeParent=0;resizeLast=1;shadow=0;dashed=0;align=center;hachureGap=4;pointerEvents=0;fillColor=#dae8fc;strokeColor=#6c8ebf;" parent="CYtTvgo_QjY-wMSUXiW4-1" vertex="1">
          <mxGeometry x="169" y="150" width="130" height="120" as="geometry" />
        </mxCell>
        <mxCell id="dCyG2mY-XgmFl275Lk3W-7" value="View Location&#xa;Info" style="align=center;spacingLeft=4;fontSize=14;verticalAlign=top;resizable=0;rotatable=0;part=1;" parent="dCyG2mY-XgmFl275Lk3W-6" vertex="1">
          <mxGeometry y="30" width="130" height="90" as="geometry" />
        </mxCell>
        <mxCell id="dCyG2mY-XgmFl275Lk3W-8" value="" style="align=center;spacingLeft=4;fontSize=14;verticalAlign=top;resizable=0;rotatable=0;part=1;" parent="dCyG2mY-XgmFl275Lk3W-6" vertex="1">
          <mxGeometry y="120" width="130" as="geometry" />
        </mxCell>
        <mxCell id="dCyG2mY-XgmFl275Lk3W-9" value="" style="align=center;spacingLeft=4;fontSize=14;verticalAlign=top;resizable=0;rotatable=0;part=1;" parent="dCyG2mY-XgmFl275Lk3W-6" vertex="1">
          <mxGeometry y="120" width="130" as="geometry" />
        </mxCell>
        <mxCell id="dCyG2mY-XgmFl275Lk3W-14" value="7.3" style="swimlane;childLayout=stackLayout;horizontal=1;startSize=30;horizontalStack=0;rounded=1;fontSize=14;fontStyle=1;strokeWidth=2;resizeParent=0;resizeLast=1;shadow=0;dashed=0;align=center;hachureGap=4;pointerEvents=0;fillColor=#dae8fc;strokeColor=#6c8ebf;" parent="CYtTvgo_QjY-wMSUXiW4-1" vertex="1">
          <mxGeometry x="169" y="310" width="130" height="120" as="geometry" />
        </mxCell>
        <mxCell id="dCyG2mY-XgmFl275Lk3W-15" value="Update Location&#xa;Info" style="align=center;spacingLeft=4;fontSize=14;verticalAlign=top;resizable=0;rotatable=0;part=1;" parent="dCyG2mY-XgmFl275Lk3W-14" vertex="1">
          <mxGeometry y="30" width="130" height="90" as="geometry" />
        </mxCell>
        <mxCell id="dCyG2mY-XgmFl275Lk3W-16" value="" style="align=center;spacingLeft=4;fontSize=14;verticalAlign=top;resizable=0;rotatable=0;part=1;" parent="dCyG2mY-XgmFl275Lk3W-14" vertex="1">
          <mxGeometry y="120" width="130" as="geometry" />
        </mxCell>
        <mxCell id="dCyG2mY-XgmFl275Lk3W-17" value="" style="align=center;spacingLeft=4;fontSize=14;verticalAlign=top;resizable=0;rotatable=0;part=1;" parent="dCyG2mY-XgmFl275Lk3W-14" vertex="1">
          <mxGeometry y="120" width="130" as="geometry" />
        </mxCell>
        <mxCell id="dCyG2mY-XgmFl275Lk3W-18" value="7.4" style="swimlane;childLayout=stackLayout;horizontal=1;startSize=30;horizontalStack=0;rounded=1;fontSize=14;fontStyle=1;strokeWidth=2;resizeParent=0;resizeLast=1;shadow=0;dashed=0;align=center;hachureGap=4;pointerEvents=0;fillColor=#dae8fc;strokeColor=#6c8ebf;" parent="CYtTvgo_QjY-wMSUXiW4-1" vertex="1">
          <mxGeometry x="169" y="470" width="130" height="120" as="geometry" />
        </mxCell>
        <mxCell id="dCyG2mY-XgmFl275Lk3W-19" value="Delete Location&#xa;InfoÂ " style="align=center;spacingLeft=4;fontSize=14;verticalAlign=top;resizable=0;rotatable=0;part=1;" parent="dCyG2mY-XgmFl275Lk3W-18" vertex="1">
          <mxGeometry y="30" width="130" height="90" as="geometry" />
        </mxCell>
        <mxCell id="dCyG2mY-XgmFl275Lk3W-20" value="" style="align=center;spacingLeft=4;fontSize=14;verticalAlign=top;resizable=0;rotatable=0;part=1;" parent="dCyG2mY-XgmFl275Lk3W-18" vertex="1">
          <mxGeometry y="120" width="130" as="geometry" />
        </mxCell>
        <mxCell id="dCyG2mY-XgmFl275Lk3W-21" value="" style="align=center;spacingLeft=4;fontSize=14;verticalAlign=top;resizable=0;rotatable=0;part=1;" parent="dCyG2mY-XgmFl275Lk3W-18" vertex="1">
          <mxGeometry y="120" width="130" as="geometry" />
        </mxCell>
        <mxCell id="dCyG2mY-XgmFl275Lk3W-22" value="&lt;font style=&quot;font-size: 14px&quot;&gt;&lt;b&gt;Admin&lt;/b&gt;&lt;/font&gt;" style="whiteSpace=wrap;html=1;align=center;hachureGap=4;pointerEvents=0;fillColor=#008a00;strokeColor=#005700;fontColor=#ffffff;" parent="CYtTvgo_QjY-wMSUXiW4-1" vertex="1">
          <mxGeometry y="270" width="100" height="40" as="geometry" />
        </mxCell>
        <mxCell id="dCyG2mY-XgmFl275Lk3W-23" value="&lt;font size=&quot;3&quot;&gt;&lt;b&gt;D1 TSM Database&lt;/b&gt;&lt;/font&gt;" style="html=1;dashed=0;whitespace=wrap;shape=mxgraph.dfd.dataStoreID;align=left;spacingLeft=3;points=[[0,0],[0.5,0],[1,0],[0,0.5],[1,0.5],[0,1],[0.5,1],[1,1]];hachureGap=4;pointerEvents=0;" parent="CYtTvgo_QjY-wMSUXiW4-1" vertex="1">
          <mxGeometry x="370" y="275" width="150" height="30" as="geometry" />
        </mxCell>
        <mxCell id="dCyG2mY-XgmFl275Lk3W-25" value="" style="endArrow=classic;html=1;sourcePerimeterSpacing=8;targetPerimeterSpacing=8;exitX=1;exitY=0.5;exitDx=0;exitDy=0;" parent="CYtTvgo_QjY-wMSUXiW4-1" source="dCyG2mY-XgmFl275Lk3W-2" edge="1">
          <mxGeometry width="50" height="50" relative="1" as="geometry">
            <mxPoint x="180" y="310" as="sourcePoint" />
            <mxPoint x="410" y="270" as="targetPoint" />
            <Array as="points">
              <mxPoint x="410" y="75" />
            </Array>
          </mxGeometry>
        </mxCell>
        <mxCell id="dCyG2mY-XgmFl275Lk3W-26" value="&lt;font style=&quot;font-size: 14px&quot;&gt;Store Location Info&lt;/font&gt;" style="text;html=1;align=center;verticalAlign=middle;resizable=0;points=[];autosize=1;strokeColor=none;fillColor=none;" parent="CYtTvgo_QjY-wMSUXiW4-1" vertex="1">
          <mxGeometry x="299" y="50" width="130" height="20" as="geometry" />
        </mxCell>
        <mxCell id="dCyG2mY-XgmFl275Lk3W-27" value="" style="endArrow=classic;html=1;sourcePerimeterSpacing=8;targetPerimeterSpacing=8;entryX=1;entryY=0.25;entryDx=0;entryDy=0;" parent="CYtTvgo_QjY-wMSUXiW4-1" target="dCyG2mY-XgmFl275Lk3W-7" edge="1">
          <mxGeometry width="50" height="50" relative="1" as="geometry">
            <mxPoint x="380" y="270" as="sourcePoint" />
            <mxPoint x="230" y="260" as="targetPoint" />
            <Array as="points">
              <mxPoint x="380" y="203" />
            </Array>
          </mxGeometry>
        </mxCell>
        <mxCell id="dCyG2mY-XgmFl275Lk3W-28" value="&lt;font style=&quot;font-size: 14px&quot;&gt;Provide Location&lt;br&gt;&amp;nbsp;Info&lt;/font&gt;" style="text;html=1;align=center;verticalAlign=middle;resizable=0;points=[];autosize=1;strokeColor=none;fillColor=none;" parent="CYtTvgo_QjY-wMSUXiW4-1" vertex="1">
          <mxGeometry x="293" y="170" width="120" height="30" as="geometry" />
        </mxCell>
        <mxCell id="dCyG2mY-XgmFl275Lk3W-29" value="" style="endArrow=classic;html=1;sourcePerimeterSpacing=8;targetPerimeterSpacing=8;exitX=0.25;exitY=0;exitDx=0;exitDy=0;" parent="CYtTvgo_QjY-wMSUXiW4-1" source="dCyG2mY-XgmFl275Lk3W-22" edge="1">
          <mxGeometry width="50" height="50" relative="1" as="geometry">
            <mxPoint x="180" y="300" as="sourcePoint" />
            <mxPoint x="170" y="60" as="targetPoint" />
            <Array as="points">
              <mxPoint x="25" y="60" />
            </Array>
          </mxGeometry>
        </mxCell>
        <mxCell id="dCyG2mY-XgmFl275Lk3W-30" value="&lt;font style=&quot;font-size: 14px&quot;&gt;Can&lt;/font&gt;" style="text;html=1;align=center;verticalAlign=middle;resizable=0;points=[];autosize=1;strokeColor=none;fillColor=none;" parent="CYtTvgo_QjY-wMSUXiW4-1" vertex="1">
          <mxGeometry x="80" y="40" width="40" height="20" as="geometry" />
        </mxCell>
        <mxCell id="dCyG2mY-XgmFl275Lk3W-31" value="" style="endArrow=classic;html=1;sourcePerimeterSpacing=8;targetPerimeterSpacing=8;exitX=0.617;exitY=-0.006;exitDx=0;exitDy=0;exitPerimeter=0;entryX=0;entryY=0.25;entryDx=0;entryDy=0;" parent="CYtTvgo_QjY-wMSUXiW4-1" source="dCyG2mY-XgmFl275Lk3W-22" target="dCyG2mY-XgmFl275Lk3W-7" edge="1">
          <mxGeometry width="50" height="50" relative="1" as="geometry">
            <mxPoint x="180" y="300" as="sourcePoint" />
            <mxPoint x="230" y="250" as="targetPoint" />
            <Array as="points">
              <mxPoint x="62" y="203" />
            </Array>
          </mxGeometry>
        </mxCell>
        <mxCell id="dCyG2mY-XgmFl275Lk3W-32" value="&lt;font style=&quot;font-size: 14px&quot;&gt;Can&lt;/font&gt;" style="text;html=1;align=center;verticalAlign=middle;resizable=0;points=[];autosize=1;strokeColor=none;fillColor=none;" parent="CYtTvgo_QjY-wMSUXiW4-1" vertex="1">
          <mxGeometry x="80" y="175" width="40" height="20" as="geometry" />
        </mxCell>
        <mxCell id="dCyG2mY-XgmFl275Lk3W-33" value="" style="endArrow=classic;html=1;sourcePerimeterSpacing=8;targetPerimeterSpacing=8;exitX=0.5;exitY=1;exitDx=0;exitDy=0;entryX=0;entryY=0.5;entryDx=0;entryDy=0;" parent="CYtTvgo_QjY-wMSUXiW4-1" source="dCyG2mY-XgmFl275Lk3W-22" target="dCyG2mY-XgmFl275Lk3W-15" edge="1">
          <mxGeometry width="50" height="50" relative="1" as="geometry">
            <mxPoint x="180" y="300" as="sourcePoint" />
            <mxPoint x="230" y="250" as="targetPoint" />
            <Array as="points">
              <mxPoint x="50" y="385" />
            </Array>
          </mxGeometry>
        </mxCell>
        <mxCell id="dCyG2mY-XgmFl275Lk3W-34" value="&lt;font style=&quot;font-size: 14px&quot;&gt;Can&lt;/font&gt;" style="text;html=1;align=center;verticalAlign=middle;resizable=0;points=[];autosize=1;strokeColor=none;fillColor=none;" parent="CYtTvgo_QjY-wMSUXiW4-1" vertex="1">
          <mxGeometry x="80" y="360" width="40" height="20" as="geometry" />
        </mxCell>
        <mxCell id="dCyG2mY-XgmFl275Lk3W-35" value="" style="endArrow=classic;html=1;sourcePerimeterSpacing=8;targetPerimeterSpacing=8;exitX=0.25;exitY=1;exitDx=0;exitDy=0;entryX=0;entryY=0.5;entryDx=0;entryDy=0;" parent="CYtTvgo_QjY-wMSUXiW4-1" source="dCyG2mY-XgmFl275Lk3W-22" target="dCyG2mY-XgmFl275Lk3W-19" edge="1">
          <mxGeometry width="50" height="50" relative="1" as="geometry">
            <mxPoint x="180" y="300" as="sourcePoint" />
            <mxPoint x="230" y="250" as="targetPoint" />
            <Array as="points">
              <mxPoint x="25" y="545" />
            </Array>
          </mxGeometry>
        </mxCell>
        <mxCell id="dCyG2mY-XgmFl275Lk3W-36" value="&lt;font style=&quot;font-size: 14px&quot;&gt;Can&lt;/font&gt;" style="text;html=1;align=center;verticalAlign=middle;resizable=0;points=[];autosize=1;strokeColor=none;fillColor=none;" parent="CYtTvgo_QjY-wMSUXiW4-1" vertex="1">
          <mxGeometry x="80" y="520" width="40" height="20" as="geometry" />
        </mxCell>
        <mxCell id="dCyG2mY-XgmFl275Lk3W-37" value="" style="endArrow=classic;html=1;sourcePerimeterSpacing=8;targetPerimeterSpacing=8;exitX=0.267;exitY=1.167;exitDx=0;exitDy=0;exitPerimeter=0;" parent="CYtTvgo_QjY-wMSUXiW4-1" source="dCyG2mY-XgmFl275Lk3W-23" edge="1">
          <mxGeometry width="50" height="50" relative="1" as="geometry">
            <mxPoint x="180" y="530" as="sourcePoint" />
            <mxPoint x="300" y="390" as="targetPoint" />
            <Array as="points">
              <mxPoint x="410" y="390" />
            </Array>
          </mxGeometry>
        </mxCell>
        <mxCell id="dCyG2mY-XgmFl275Lk3W-38" value="&lt;font style=&quot;font-size: 14px&quot;&gt;Add New Info&lt;/font&gt;" style="text;html=1;align=center;verticalAlign=middle;resizable=0;points=[];autosize=1;strokeColor=none;fillColor=none;" parent="CYtTvgo_QjY-wMSUXiW4-1" vertex="1">
          <mxGeometry x="303" y="370" width="100" height="20" as="geometry" />
        </mxCell>
        <mxCell id="dCyG2mY-XgmFl275Lk3W-39" value="" style="endArrow=classic;html=1;sourcePerimeterSpacing=8;targetPerimeterSpacing=8;exitX=0.668;exitY=0.986;exitDx=0;exitDy=0;exitPerimeter=0;" parent="CYtTvgo_QjY-wMSUXiW4-1" source="dCyG2mY-XgmFl275Lk3W-23" edge="1">
          <mxGeometry width="50" height="50" relative="1" as="geometry">
            <mxPoint x="180" y="530" as="sourcePoint" />
            <mxPoint x="300" y="530" as="targetPoint" />
            <Array as="points">
              <mxPoint x="470" y="530" />
            </Array>
          </mxGeometry>
        </mxCell>
        <mxCell id="dCyG2mY-XgmFl275Lk3W-40" value="&lt;font style=&quot;font-size: 14px&quot;&gt;Remove Location Info&lt;/font&gt;" style="text;html=1;align=center;verticalAlign=middle;resizable=0;points=[];autosize=1;strokeColor=none;fillColor=none;" parent="CYtTvgo_QjY-wMSUXiW4-1" vertex="1">
          <mxGeometry x="310" y="500" width="150" height="20" as="geometry" />
        </mxCell>
      </root>
    </mxGraphModel>
  </diagram>
</mxfile>
